PathFileType	4	(X/Y/Z)	C:/Users/beibeiliu/ov580/test_trc/User2\sequence.23_training_dense_right.trc
DataRate	CameraRate	NumFrames	NumMarkers	Units	OrigDataRate	OrigDataStartFrame	OrigNumFrames
120	120	10	19	mm	120	65	257
Frame#	Time	ThumbCMC			ThumbMCP			ThumbIP			ThumbTip			IndexMCP			IndexPIP			IndexTip			MiddleMCP			MiddlePIP			MiddleTip			RingMCP			RingPIP			RingTip			PinkyMCP			PinkyPIP			PinkyTip			BackHand1			BackHand2			BackHand3	
		X0	Y0	Z0	X1	Y1	Z1	X2	Y2	Z2	X3	Y3	Z3	X4	Y4	Z4	X5	Y5	Z5	X6	Y6	Z6	X7	Y7	Z7	X8	Y8	Z8	X9	Y9	Z9	X10	Y10	Z10	X11	Y11	Z11	X12	Y12	Z12	X13	Y13	Z13	X14	Y14	Z14	X15	Y15	Z15	X16	Y16	Z16	X17	Y17	Z17	X18	Y18	Z18	
64	0.533333	128.122	-20.6824	56.148	100.749	-8.75631	25.4959	72.4159	-7.41748	7.65327	47.405	-13.8429	-2.72098	87.9678	-48.7105	-10.5211	66.6545	-36.8719	-32.781	44.266	-28.4252	-46.5301	61.0079	-56.9841	-0.879434	35.8791	-45.0768	-14.04	13.2683	-31.7126	-32.0979	45.1102	-41.5763	27.7423	41.423	-6.98311	38.9307	65.2042	4.51923	56.407	39.3953	-43.2875	46.445	47.3789	-11.6764	55.2922	73.4764	-8.41761	72.885	83.6122	-79.1304	59.1517	106.804	-78.1483	90.3428	123.132	-63.4206	55.8026	
65	0.541667	128.288	-24.7964	53.8127	102.689	-13.2578	28.9831	74.9952	-12.2338	6.85083	51.2	-14.4845	-2.13309	86.8551	-53.5765	-9.01576	64.4603	-43.0366	-28.8514	47.7882	-33.3031	-45.2222	55.118	-61.4538	0.415241	36.7302	-47.9024	-14.4673	16.0613	-33.2352	-32.3123	45.5921	-40.3394	24.4407	44.578	-9.69003	31.9065	70.4991	3.1693	53.7573	38.7022	-41.4362	45.0215	49.7732	-10.8775	55.8754	75.6436	-12.5107	68.5569	83.0008	-80.2835	63.0827	105.426	-77.2468	92.4441	119.733	-70.3191	55.854	
66	0.55	128.098	-27.8013	53.9008	103.99	-15.0537	29.4508	73.9926	-16.4621	4.52368	51.2225	-19.1985	-2.31012	82.9918	-56.3423	-9.36344	70.0847	-46.9181	-29.0729	47.7367	-35.5537	-49.6328	58.6832	-64.9919	2.4914	36.6582	-51.0567	-15.8369	11.9167	-35.0824	-33.7686	41.8187	-41.9403	24.5087	43.3874	-9.93437	32.8536	68.131	0.911171	51.7485	36.8292	-44.3516	45.0258	46.1887	-14.9826	51.3717	74.8346	-15.0984	71.4223	77.9744	-83.8985	62.556	99.8038	-79.6793	92.7709	119.444	-70.6947	59.8209	
67	0.558333	127.664	-29.3048	54.4095	102.426	-18.2487	28.7728	72.2699	-22.0343	7.91899	50.7419	-21.4197	-3.67863	82.6246	-60.4413	-8.3807	67.8205	-49.892	-30.0375	45.7629	-40.9791	-47.2485	57.7194	-65.6862	-1.42669	35.8489	-54.8577	-15.3101	12.9498	-40.6235	-32.194	42.0896	-50.2171	26.4885	40.1389	-16.9315	29.625	64.6312	-2.54082	51.7057	33.9807	-48.3749	47.2252	48.1913	-15.3222	51.022	71.9956	-16.1874	69.3416	80.2396	-84.5097	65.1916	99.0909	-82.9703	97.1168	119.501	-72.8017	57.2531	
68	0.566667	124.288	-30.4372	55.7583	100.857	-20.3221	31.2542	71.2874	-20.8302	4.44816	48.6569	-25.2298	-4.99757	82.5063	-63.7275	-5.60085	64.7405	-56.5746	-26.1628	47.01	-44.9199	-47.1621	52.9341	-70.8304	1.09237	33.5346	-58.2797	-13.8114	9.9407	-44.3687	-31.8378	38.6062	-52.6164	27.2589	38.4516	-20.6755	29.7613	64.8826	-4.41091	52.5815	33.6079	-51.4125	45.9795	41.796	-22.4049	49.81	71.8688	-19.1118	68.1871	81.3557	-86.507	64.8526	97.6027	-84.6761	93.8759	114.791	-75.7155	60.1174	
69	0.575	117.931	-35.8468	55.6185	97.5689	-23.8236	31.0804	67.1281	-27.7722	5.50773	46.6775	-28.3361	-2.98284	79.718	-65.1028	-10.0402	62.8828	-58.3156	-28.1727	43.7944	-49.4541	-46.5071	53.4806	-73.6404	2.48353	32.4435	-60.8636	-14.8797	4.36921	-47.8805	-28.5603	37.8798	-56.6415	27.9662	36.0181	-24.6227	29.6564	58.248	-8.10628	55.7733	32.8165	-52.9282	44.7653	36.3718	-23.5603	54.0766	64.1788	-19.57	69.7677	76.0586	-90.1184	65.0685	100.952	-84.1525	95.042	117.191	-73.7666	62.0042	
70	0.583333	117.606	-35.9751	57.6006	93.9522	-26.5522	30.0819	65.8345	-27.7864	4.69457	43.4038	-31.545	-4.53544	73.6308	-68.4777	-8.11151	59.8937	-60.517	-27.753	39.3073	-50.5631	-49.2278	49.132	-76.8573	6.84294	32.0313	-63.7052	-12.9055	4.26689	-51.6359	-26.3385	38.0066	-57.1866	27.7091	33.6539	-25.4626	29.945	59.0336	-8.46572	51.1896	30.3885	-54.3976	45.4044	38.9925	-22.8163	54.2042	64.4023	-20.2051	66.266	73.2646	-90.0695	65.6916	95.3718	-85.9769	93.248	113.703	-79.0265	61.0764	
71	0.591667	117.245	-37.985	56.0317	96.5683	-25.4768	28	64.0546	-31.7954	8.64923	40.6077	-33.9472	-5.10324	75.9897	-70.3031	-6.70815	55.8116	-62.8746	-26.0345	41.6657	-54.6361	-45.3654	49.6114	-75.958	2.95303	30.4596	-65.6431	-12.6563	3.5909	-50.9208	-31.7282	36.3602	-56.1131	28.1051	31.8517	-26.428	34.3521	60.8701	-8.78676	54.5406	30.1939	-56.6976	49.4994	38.3575	-25.4592	51.326	63.6937	-22.4035	67.3324	74.6297	-92.4199	69.2399	97.8569	-85.4311	98.285	114.036	-76.7374	64.5915	
72	0.6	120.488	-37.646	58.8418	96.1524	-28.6622	27.5758	66.6235	-32.579	7.50747	43.3893	-34.8135	-3.75366	78.225	-72.5185	-3.56164	58.6354	-64.2739	-27.7889	40.3394	-56.5868	-46.4563	51.4119	-77.0172	4.47985	28.5595	-66.1371	-12.8414	8.6655	-53.2305	-31.286	39.2829	-57.8871	27.116	38.1604	-23.6414	30.1987	60.1245	-9.45645	55.1861	33.2762	-57.0099	47.2595	44.3051	-23.5659	52.2702	69.845	-23.464	71.8766	75.5771	-91.757	68.6171	93.6836	-87.816	95.2904	114.444	-78.5212	59.676	
73	0.608333	122.271	-39.3973	55.428	102.91	-25.495	25.3086	72.5271	-30.33	6.35463	50.9584	-33.5673	-6.18198	84.0889	-72.309	-7.17325	70.3169	-63.6739	-30.2394	51.787	-58.6735	-48.3975	58.2103	-77.6048	1.57111	38.0606	-66.5651	-14.9922	15.643	-53.8519	-35.6862	44.9919	-57.6458	23.7634	39.4206	-22.7237	29.0621	64.0457	-8.72628	51.6825	35.9381	-55.0665	45.2873	45.0027	-22.2822	52.2971	74.2705	-23.6707	70.5556	78.5453	-89.0205	64.3451	98.2152	-84.9268	96.3273	118.587	-77.3088	62.906	
